<?xml version="1.0" encoding="iso-8859-1"?>
<!-- Generator: Adobe Illustrator 16.0.0, SVG Export Plug-In . SVG Version: 6.00 Build 0)  -->
<!DOCTYPE svg PUBLIC "-//W3C//DTD SVG 1.1//EN" "http://www.w3.org/Graphics/SVG/1.1/DTD/svg11.dtd">
<svg version="1.1" id="Capa_1" xmlns="http://www.w3.org/2000/svg" xmlns:xlink="http://www.w3.org/1999/xlink" x="0px" y="0px"
	 width="910px" height="910px" viewBox="0 0 910 910" style="enable-background:new 0 0 910 910;" xml:space="preserve">
<g>
	<g>
		<path d="M789.1,449.9H879V369c0-16.8-13.7-30.5-30.5-30.5H342.1c1.601,3.3,3.101,6.6,4.601,10c10.2,24.2,15.399,49.9,15.399,76.4
			c0,8.399-0.5,16.8-1.6,25H789.1z"/>
		<path d="M165.9,263.7c-3.4,0-6.7,0.1-10,0.3v185.8H267h58.1c1.301-8.2,1.9-16.5,1.9-25c0-31.8-9.2-61.399-25.1-86.3
			C273.4,293.5,223.1,263.7,165.9,263.7z"/>
		<path d="M30,731.5h60.9c16.6,0,30-13.4,30-30v-95.7h668.2v95.7c0,16.6,13.4,30,30,30H880c16.6,0,30-13.4,30-30V514.9
			c0-16.601-13.4-30-30-30h-90.9H120.9V270.1v-61.6c0-16.6-13.4-30-30-30H30c-16.6,0-30,13.4-30,30v111.7v38.5V491v38.5v172
			C0,718,13.4,731.5,30,731.5z"/>
	</g>
</g>
<g>
</g>
<g>
</g>
<g>
</g>
<g>
</g>
<g>
</g>
<g>
</g>
<g>
</g>
<g>
</g>
<g>
</g>
<g>
</g>
<g>
</g>
<g>
</g>
<g>
</g>
<g>
</g>
<g>
</g>
</svg>
