<svg width="12" height="11" viewBox="0 0 12 11" fill="none" xmlns="http://www.w3.org/2000/svg">
<path fill-rule="evenodd" clip-rule="evenodd" d="M9.50113 8.12677C8.96435 8.12677 8.52908 7.69182 8.52908 7.15409C8.52908 6.617 8.96435 6.18173 9.50113 6.18173C10.0382 6.18173 10.4738 6.61668 10.4738 7.15409C10.4738 7.69182 10.0382 8.12677 9.50113 8.12677ZM2.70922 4.62614L2.82153 3.45587C2.90331 2.60505 3.60935 1.96423 4.46431 1.96423H4.63962V2.33205C4.63962 2.65118 4.89322 2.90541 5.21203 2.90541H6.75712C7.07594 2.90541 7.33399 2.65118 7.33399 2.33205V1.96455H7.50485C8.35981 1.96455 9.06585 2.60505 9.14731 3.45618L9.25994 4.62646L2.70922 4.62614ZM2.46676 8.12677C1.92999 8.12677 1.49472 7.69182 1.49472 7.15409C1.49472 6.617 1.92999 6.18173 2.46676 6.18173C3.00385 6.18173 3.43944 6.61668 3.43944 7.15409C3.43944 7.69182 3.00385 8.12677 2.46676 8.12677ZM11.1331 5.105C11.085 4.82977 10.8458 4.62614 10.5667 4.62614H10.246L10.1241 3.35755C9.99399 2.00082 8.86794 0.974365 7.50485 0.974365H4.46431C3.1009 0.974365 1.97517 2.00114 1.84472 3.35755L1.72317 4.62614H1.40212C1.12276 4.62614 0.883807 4.82977 0.835125 5.105L0.357852 7.81082C0.29867 8.14618 0.393488 8.49141 0.612398 8.75168C0.823034 9.00241 1.13326 9.15196 1.45781 9.16309V9.61236C1.45781 10.2484 1.96753 10.7607 2.60422 10.7607H2.96631C3.60235 10.7607 4.11972 10.2484 4.11972 9.61236V9.17009H7.85262V9.61141C7.85262 10.2478 8.36585 10.7607 9.0019 10.7607H9.36431C10.0004 10.7607 10.5142 10.2478 10.5142 9.61141V9.16309C10.8388 9.15196 11.1471 9.00368 11.3571 8.75327C11.576 8.49205 11.6695 8.14873 11.611 7.81305L11.1331 5.105Z" fill="#9DA8C9"/>
</svg>
